<svg xmlns="http://www.w3.org/2000/svg" width="236.42" height="35" viewBox="0 0 236.42 35"><rect class="svg__rect" x="0" y="0" width="120.81" height="35" fill="#A8A0BF"/><rect class="svg__rect" x="118.81" y="0" width="117.60999999999999" height="35" fill="#EA4560"/><path class="svg__text" d="M13.95 18.19L13.95 18.19L13.95 17.39Q13.95 16.19 14.38 15.27Q14.80 14.35 15.60 13.85Q16.40 13.35 17.45 13.35L17.45 13.35Q18.86 13.35 19.73 14.12Q20.59 14.89 20.73 16.29L20.73 16.29L19.25 16.29Q19.14 15.37 18.71 14.96Q18.28 14.55 17.45 14.55L17.45 14.55Q16.48 14.55 15.97 15.26Q15.45 15.96 15.44 17.33L15.44 17.33L15.44 18.09Q15.44 19.47 15.93 20.20Q16.43 20.92 17.38 20.92L17.38 20.92Q18.25 20.92 18.69 20.53Q19.13 20.14 19.25 19.22L19.25 19.22L20.73 19.22Q20.60 20.59 19.72 21.35Q18.84 22.12 17.38 22.12L17.38 22.12Q16.36 22.12 15.59 21.63Q14.81 21.15 14.39 20.26Q13.97 19.37 13.95 18.19ZM24.77 18.00L24.77 18.00L24.77 17.52Q24.77 16.28 25.21 15.32Q25.65 14.37 26.46 13.86Q27.27 13.35 28.31 13.35Q29.35 13.35 30.16 13.85Q30.96 14.35 31.40 15.29Q31.84 16.23 31.85 17.48L31.85 17.48L31.85 17.96Q31.85 19.21 31.41 20.16Q30.98 21.10 30.18 21.61Q29.37 22.12 28.32 22.12L28.32 22.12Q27.28 22.12 26.47 21.61Q25.66 21.10 25.22 20.17Q24.78 19.23 24.77 18.00ZM26.25 17.46L26.25 17.96Q26.25 19.36 26.80 20.13Q27.35 20.90 28.32 20.90L28.32 20.90Q29.31 20.90 29.84 20.15Q30.37 19.40 30.37 17.96L30.37 17.96L30.37 17.51Q30.37 16.09 29.83 15.34Q29.29 14.58 28.31 14.58L28.31 14.58Q27.35 14.58 26.81 15.33Q26.26 16.09 26.25 17.46L26.25 17.46ZM37.80 22L36.31 22L36.31 13.47L37.80 13.47L41.61 19.54L41.61 13.47L43.08 13.47L43.08 22L41.60 22L37.80 15.95L37.80 22ZM50.12 22L47.06 13.47L48.68 13.47L50.83 20.14L52.99 13.47L54.62 13.47L51.55 22L50.12 22ZM64.15 22L58.57 22L58.57 13.47L64.11 13.47L64.11 14.66L60.06 14.66L60.06 17.02L63.56 17.02L63.56 18.19L60.06 18.19L60.06 20.82L64.15 20.82L64.15 22ZM69.83 22L68.35 22L68.35 13.47L71.35 13.47Q72.82 13.47 73.63 14.13Q74.43 14.79 74.43 16.05L74.43 16.05Q74.43 16.90 74.02 17.48Q73.60 18.06 72.86 18.37L72.86 18.37L74.78 21.92L74.78 22L73.19 22L71.48 18.71L69.83 18.71L69.83 22ZM69.83 14.66L69.83 17.52L71.35 17.52Q72.10 17.52 72.52 17.15Q72.95 16.77 72.95 16.11L72.95 16.11Q72.95 15.43 72.56 15.05Q72.17 14.68 71.39 14.66L71.39 14.66L69.83 14.66ZM78.39 19.42L78.39 19.42L79.87 19.42Q79.87 20.15 80.35 20.55Q80.83 20.95 81.73 20.95L81.73 20.95Q82.50 20.95 82.89 20.63Q83.28 20.32 83.28 19.80L83.28 19.80Q83.28 19.24 82.89 18.94Q82.49 18.63 81.46 18.32Q80.43 18.01 79.82 17.63L79.82 17.63Q78.65 16.90 78.65 15.72L78.65 15.72Q78.65 14.69 79.49 14.02Q80.33 13.35 81.68 13.35L81.68 13.35Q82.57 13.35 83.26 13.68Q83.96 14.01 84.36 14.61Q84.76 15.22 84.76 15.96L84.76 15.96L83.28 15.96Q83.28 15.29 82.86 14.91Q82.44 14.54 81.66 14.54L81.66 14.54Q80.94 14.54 80.54 14.85Q80.14 15.16 80.14 15.71L80.14 15.71Q80.14 16.18 80.57 16.50Q81.00 16.81 82.00 17.10Q82.99 17.40 83.60 17.78Q84.20 18.16 84.48 18.65Q84.76 19.13 84.76 19.79L84.76 19.79Q84.76 20.86 83.95 21.49Q83.13 22.12 81.73 22.12L81.73 22.12Q80.80 22.12 80.03 21.77Q79.25 21.43 78.82 20.83Q78.39 20.22 78.39 19.42ZM88.78 18.00L88.78 18.00L88.78 17.52Q88.78 16.28 89.23 15.32Q89.67 14.37 90.47 13.86Q91.28 13.35 92.32 13.35Q93.37 13.35 94.17 13.85Q94.98 14.35 95.42 15.29Q95.86 16.23 95.86 17.48L95.86 17.48L95.86 17.96Q95.86 19.21 95.43 20.16Q94.99 21.10 94.19 21.61Q93.38 22.12 92.33 22.12L92.33 22.12Q91.30 22.12 90.49 21.61Q89.67 21.10 89.23 20.17Q88.79 19.23 88.78 18.00ZM90.27 17.46L90.27 17.96Q90.27 19.36 90.81 20.13Q91.36 20.90 92.33 20.90L92.33 20.90Q93.32 20.90 93.85 20.15Q94.38 19.40 94.38 17.96L94.38 17.96L94.38 17.51Q94.38 16.09 93.84 15.34Q93.31 14.58 92.32 14.58L92.32 14.58Q91.36 14.58 90.82 15.33Q90.28 16.09 90.27 17.46L90.27 17.46ZM101.81 22L100.33 22L100.33 13.47L103.33 13.47Q104.80 13.47 105.61 14.13Q106.41 14.79 106.41 16.05L106.41 16.05Q106.41 16.90 106.00 17.48Q105.58 18.06 104.84 18.37L104.84 18.37L106.76 21.92L106.76 22L105.17 22L103.46 18.71L101.81 18.71L101.81 22ZM101.81 14.66L101.81 17.52L103.33 17.52Q104.08 17.52 104.50 17.15Q104.93 16.77 104.93 16.11L104.93 16.11Q104.93 15.43 104.54 15.05Q104.15 14.68 103.37 14.66L103.37 14.66L101.81 14.66Z" fill="#FFFFFF"/><path class="svg__text" d="M132.93 18.26L132.93 18.26L132.93 13.60L135.31 13.60L135.31 18.19Q135.31 20.20 136.90 20.20L136.90 20.20Q138.48 20.20 138.48 18.19L138.48 18.19L138.48 13.60L140.83 13.60L140.83 18.26Q140.83 20.13 139.79 21.15Q138.75 22.17 136.88 22.17L136.88 22.17Q135.00 22.17 133.96 21.15Q132.93 20.13 132.93 18.26ZM148.24 22L145.91 22L145.91 13.60L147.87 13.60L151.58 18.07L151.58 13.60L153.90 13.60L153.90 22L151.95 22L148.24 17.52L148.24 22ZM161.45 22L159.07 22L159.07 13.60L161.45 13.60L161.45 22ZM170.59 22L166.62 22L166.62 13.60L170.59 13.60Q171.97 13.60 173.04 14.12Q174.11 14.63 174.70 15.58Q175.28 16.53 175.28 17.80L175.28 17.80Q175.28 19.07 174.70 20.02Q174.11 20.97 173.04 21.48Q171.97 22 170.59 22L170.59 22ZM169.00 15.50L169.00 20.10L170.50 20.10Q171.58 20.10 172.23 19.49Q172.88 18.88 172.88 17.80L172.88 17.80Q172.88 16.72 172.23 16.11Q171.58 15.50 170.50 15.50L170.50 15.50L169.00 15.50ZM181.43 22L179.01 22L182.71 13.60L185.06 13.60L188.77 22L186.31 22L185.64 20.37L182.09 20.37L181.43 22ZM183.87 15.93L182.78 18.61L184.95 18.61L183.87 15.93ZM196.90 22L192.93 22L192.93 13.60L196.90 13.60Q198.28 13.60 199.35 14.12Q200.42 14.63 201.00 15.58Q201.59 16.53 201.59 17.80L201.59 17.80Q201.59 19.07 201.00 20.02Q200.42 20.97 199.35 21.48Q198.28 22 196.90 22L196.90 22ZM195.31 15.50L195.31 20.10L196.81 20.10Q197.88 20.10 198.54 19.49Q199.19 18.88 199.19 17.80L199.19 17.80Q199.19 16.72 198.54 16.11Q197.88 15.50 196.81 15.50L196.81 15.50L195.31 15.50ZM213.07 22L206.32 22L206.32 13.60L212.91 13.60L212.91 15.44L208.68 15.44L208.68 16.85L212.41 16.85L212.41 18.63L208.68 18.63L208.68 20.17L213.07 20.17L213.07 22ZM217.28 21.24L217.28 21.24L218.06 19.49Q218.63 19.86 219.37 20.09Q220.12 20.32 220.84 20.32L220.84 20.32Q222.20 20.32 222.21 19.64L222.21 19.64Q222.21 19.28 221.82 19.11Q221.43 18.93 220.56 18.74L220.56 18.74Q219.61 18.53 218.98 18.30Q218.34 18.06 217.89 17.55Q217.43 17.03 217.43 16.16L217.43 16.16Q217.43 15.39 217.85 14.77Q218.27 14.15 219.10 13.79Q219.94 13.43 221.15 13.43L221.15 13.43Q221.97 13.43 222.78 13.62Q223.58 13.80 224.20 14.17L224.20 14.17L223.47 15.93Q222.27 15.28 221.13 15.28L221.13 15.28Q220.43 15.28 220.10 15.49Q219.78 15.70 219.78 16.04L219.78 16.04Q219.78 16.37 220.16 16.54Q220.55 16.71 221.40 16.89L221.40 16.89Q222.36 17.10 222.99 17.33Q223.62 17.56 224.08 18.07Q224.54 18.58 224.54 19.46L224.54 19.46Q224.54 20.21 224.13 20.83Q223.71 21.44 222.87 21.80Q222.03 22.17 220.82 22.17L220.82 22.17Q219.80 22.17 218.84 21.92Q217.88 21.67 217.28 21.24Z" fill="#FFFFFF" x="131.81"/></svg>