<svg xmlns="http://www.w3.org/2000/svg" width="176.89000000000001" height="35" viewBox="0 0 176.89000000000001 35"><rect class="svg__rect" x="0" y="0" width="67" height="35" fill="#A8A0BF"/><rect class="svg__rect" x="65" y="0" width="111.89000000000001" height="35" fill="#D35B09"/><path class="svg__text" d="M13.61 19.57L13.61 19.57L15.09 19.57Q15.09 20.25 15.43 20.59Q15.76 20.93 16.40 20.93L16.40 20.93Q17.00 20.93 17.35 20.54Q17.71 20.14 17.71 19.45L17.71 19.45L17.71 13.47L19.19 13.47L19.19 19.45Q19.19 20.68 18.42 21.40Q17.66 22.12 16.40 22.12L16.40 22.12Q15.07 22.12 14.34 21.44Q13.61 20.77 13.61 19.57ZM24.65 22L23.11 22L26.33 13.47L27.66 13.47L30.89 22L29.34 22L28.64 20.01L25.34 20.01L24.65 22ZM26.99 15.28L25.75 18.82L28.23 18.82L26.99 15.28ZM37.14 22L34.08 13.47L35.70 13.47L37.85 20.14L40.02 13.47L41.64 13.47L38.57 22L37.14 22ZM46.37 22L44.83 22L48.06 13.47L49.39 13.47L52.61 22L51.07 22L50.37 20.01L47.06 20.01L46.37 22ZM48.72 15.28L47.48 18.82L49.95 18.82L48.72 15.28Z" fill="#FFFFFF"/><path class="svg__text" d="M81.57 22L79.19 22L79.19 13.60L81.57 13.60L81.57 16.76L84.81 16.76L84.81 13.60L87.18 13.60L87.18 22L84.81 22L84.81 18.72L81.57 18.72L81.57 22ZM93.76 22L91.33 22L95.04 13.60L97.39 13.60L101.10 22L98.64 22L97.97 20.37L94.42 20.37L93.76 22ZM96.20 15.93L95.11 18.61L97.28 18.61L96.20 15.93ZM104.67 21.24L104.67 21.24L105.45 19.49Q106.01 19.86 106.76 20.09Q107.50 20.32 108.22 20.32L108.22 20.32Q109.59 20.32 109.59 19.64L109.59 19.64Q109.59 19.28 109.20 19.11Q108.81 18.93 107.95 18.74L107.95 18.74Q107.00 18.53 106.36 18.30Q105.72 18.06 105.27 17.55Q104.82 17.03 104.82 16.16L104.82 16.16Q104.82 15.39 105.24 14.77Q105.65 14.15 106.49 13.79Q107.32 13.43 108.53 13.43L108.53 13.43Q109.36 13.43 110.16 13.62Q110.97 13.80 111.58 14.17L111.58 14.17L110.85 15.93Q109.65 15.28 108.52 15.28L108.52 15.28Q107.81 15.28 107.49 15.49Q107.17 15.70 107.17 16.04L107.17 16.04Q107.17 16.37 107.55 16.54Q107.93 16.71 108.78 16.89L108.78 16.89Q109.74 17.10 110.37 17.33Q111.00 17.56 111.47 18.07Q111.93 18.58 111.93 19.46L111.93 19.46Q111.93 20.21 111.51 20.83Q111.09 21.44 110.25 21.80Q109.41 22.17 108.21 22.17L108.21 22.17Q107.19 22.17 106.23 21.92Q105.27 21.67 104.67 21.24ZM118.89 22L116.51 22L116.51 13.60L118.89 13.60L118.89 16.76L122.13 16.76L122.13 13.60L124.50 13.60L124.50 22L122.13 22L122.13 18.72L118.89 18.72L118.89 22ZM131.86 22L129.66 22L129.66 13.60L131.62 13.60L134.57 18.45L137.45 13.60L139.40 13.60L139.43 22L137.25 22L137.22 17.55L135.06 21.17L134.01 21.17L131.86 17.67L131.86 22ZM146.01 22L143.58 22L147.29 13.60L149.64 13.60L153.35 22L150.88 22L150.22 20.37L146.67 20.37L146.01 22ZM148.45 15.93L147.36 18.61L149.52 18.61L148.45 15.93ZM159.88 22L157.50 22L157.50 13.60L161.35 13.60Q162.48 13.60 163.33 13.98Q164.17 14.35 164.62 15.06Q165.08 15.76 165.08 16.71L165.08 16.71Q165.08 17.66 164.62 18.35Q164.17 19.05 163.33 19.42Q162.48 19.80 161.35 19.80L161.35 19.80L159.88 19.80L159.88 22ZM159.88 15.47L159.88 17.93L161.20 17.93Q161.93 17.93 162.31 17.61Q162.68 17.29 162.68 16.71L162.68 16.71Q162.68 16.12 162.31 15.80Q161.93 15.47 161.20 15.47L161.20 15.47L159.88 15.47Z" fill="#FFFFFF" x="78"/></svg>