<svg xmlns="http://www.w3.org/2000/svg" width="149.16" height="35" viewBox="0 0 149.16 35"><rect class="svg__rect" x="0" y="0" width="67" height="35" fill="#A8A0BF"/><rect class="svg__rect" x="65" y="0" width="84.16" height="35" fill="#55D538"/><path class="svg__text" d="M13.61 19.57L13.61 19.57L15.09 19.57Q15.09 20.25 15.43 20.59Q15.76 20.93 16.40 20.93L16.40 20.93Q17.00 20.93 17.35 20.54Q17.71 20.14 17.71 19.45L17.71 19.45L17.71 13.47L19.19 13.47L19.19 19.45Q19.19 20.68 18.42 21.40Q17.66 22.12 16.40 22.12L16.40 22.12Q15.07 22.12 14.34 21.44Q13.61 20.77 13.61 19.57ZM24.65 22L23.11 22L26.33 13.47L27.66 13.47L30.89 22L29.34 22L28.64 20.01L25.34 20.01L24.65 22ZM26.99 15.28L25.75 18.82L28.23 18.82L26.99 15.28ZM37.14 22L34.08 13.47L35.70 13.47L37.85 20.14L40.02 13.47L41.64 13.47L38.57 22L37.14 22ZM46.37 22L44.83 22L48.06 13.47L49.39 13.47L52.61 22L51.07 22L50.37 20.01L47.06 20.01L46.37 22ZM48.72 15.28L47.48 18.82L49.95 18.82L48.72 15.28Z" fill="#FFFFFF"/><path class="svg__text" d="M78.60 21.24L78.60 21.24L79.38 19.49Q79.94 19.86 80.69 20.09Q81.43 20.32 82.15 20.32L82.15 20.32Q83.52 20.32 83.52 19.64L83.52 19.64Q83.52 19.28 83.13 19.11Q82.74 18.93 81.88 18.74L81.88 18.74Q80.93 18.53 80.29 18.30Q79.66 18.06 79.20 17.55Q78.75 17.03 78.75 16.16L78.75 16.16Q78.75 15.39 79.17 14.77Q79.59 14.15 80.42 13.79Q81.26 13.43 82.46 13.43L82.46 13.43Q83.29 13.43 84.10 13.62Q84.90 13.80 85.52 14.17L85.52 14.17L84.78 15.93Q83.58 15.28 82.45 15.28L82.45 15.28Q81.74 15.28 81.42 15.49Q81.10 15.70 81.10 16.04L81.10 16.04Q81.10 16.37 81.48 16.54Q81.87 16.71 82.72 16.89L82.72 16.89Q83.68 17.10 84.31 17.33Q84.94 17.56 85.40 18.07Q85.86 18.58 85.86 19.46L85.86 19.46Q85.86 20.21 85.44 20.83Q85.02 21.44 84.18 21.80Q83.34 22.17 82.14 22.17L82.14 22.17Q81.12 22.17 80.16 21.92Q79.20 21.67 78.60 21.24ZM92.52 22L89.79 13.60L92.24 13.60L93.93 18.96L95.71 13.60L97.89 13.60L99.58 19.01L101.35 13.60L103.62 13.60L100.89 22L98.35 22L96.74 16.89L95.06 22L92.52 22ZM110.51 22L108.13 22L108.13 13.60L110.51 13.60L110.51 22ZM118.01 22L115.68 22L115.68 13.60L117.64 13.60L121.35 18.07L121.35 13.60L123.67 13.60L123.67 22L121.72 22L118.01 17.52L118.01 22ZM128.41 17.80L128.41 17.80Q128.41 16.54 129.00 15.54Q129.60 14.55 130.67 13.99Q131.74 13.43 133.08 13.43L133.08 13.43Q134.26 13.43 135.20 13.83Q136.14 14.22 136.76 14.97L136.76 14.97L135.24 16.33Q134.40 15.40 133.22 15.40L133.22 15.40Q133.21 15.40 133.21 15.40L133.21 15.40Q132.13 15.40 131.47 16.06Q130.80 16.71 130.80 17.80L130.80 17.80Q130.80 18.50 131.10 19.04Q131.41 19.59 131.95 19.89Q132.48 20.20 133.18 20.20L133.18 20.20Q133.87 20.20 134.47 19.93L134.47 19.93L134.47 17.62L136.56 17.62L136.56 21.10Q135.84 21.61 134.91 21.89Q133.97 22.17 133.04 22.17L133.04 22.17Q131.72 22.17 130.66 21.61Q129.60 21.05 129.00 20.05Q128.41 19.06 128.41 17.80Z" fill="#FFFFFF" x="78"/></svg>