<svg xmlns="http://www.w3.org/2000/svg" width="219.05999999999997" height="35" viewBox="0 0 219.05999999999997 35"><rect class="svg__rect" x="0" y="0" width="152.38" height="35" fill="#A8A0BF"/><rect class="svg__rect" x="150.38" y="0" width="68.67999999999998" height="35" fill="#389AD5"/><path class="svg__text" d="M15.70 22L14.22 22L14.22 13.47L17.22 13.47Q18.69 13.47 19.50 14.13Q20.30 14.79 20.30 16.05L20.30 16.05Q20.30 16.90 19.89 17.48Q19.47 18.06 18.73 18.37L18.73 18.37L20.65 21.92L20.65 22L19.06 22L17.35 18.71L15.70 18.71L15.70 22ZM15.70 14.66L15.70 17.52L17.22 17.52Q17.97 17.52 18.39 17.15Q18.82 16.77 18.82 16.11L18.82 16.11Q18.82 15.43 18.43 15.05Q18.04 14.68 17.26 14.66L17.26 14.66L15.70 14.66ZM30.27 22L24.69 22L24.69 13.47L30.23 13.47L30.23 14.66L26.18 14.66L26.18 17.02L29.68 17.02L29.68 18.19L26.18 18.19L26.18 20.82L30.27 20.82L30.27 22ZM39.82 22L34.47 22L34.47 13.47L35.95 13.47L35.95 20.82L39.82 20.82L39.82 22ZM44.73 22L43.19 22L46.41 13.47L47.74 13.47L50.97 22L49.42 22L48.72 20.01L45.42 20.01L44.73 22ZM47.07 15.28L45.83 18.82L48.31 18.82L47.07 15.28ZM60.50 22L54.92 22L54.92 13.47L60.46 13.47L60.46 14.66L56.40 14.66L56.40 17.02L59.91 17.02L59.91 18.19L56.40 18.19L56.40 20.82L60.50 20.82L60.50 22ZM65.47 22L63.93 22L67.16 13.47L68.49 13.47L71.72 22L70.17 22L69.47 20.01L66.17 20.01L65.47 22ZM67.82 15.28L66.58 18.82L69.06 18.82L67.82 15.28ZM75.24 19.42L75.24 19.42L76.72 19.42Q76.72 20.15 77.20 20.55Q77.68 20.95 78.58 20.95L78.58 20.95Q79.35 20.95 79.74 20.63Q80.13 20.32 80.13 19.80L80.13 19.80Q80.13 19.24 79.73 18.94Q79.34 18.63 78.31 18.32Q77.28 18.01 76.67 17.63L76.67 17.63Q75.50 16.90 75.50 15.72L75.50 15.72Q75.50 14.69 76.34 14.02Q77.18 13.35 78.52 13.35L78.52 13.35Q79.41 13.35 80.11 13.68Q80.81 14.01 81.21 14.61Q81.61 15.22 81.61 15.96L81.61 15.96L80.13 15.96Q80.13 15.29 79.71 14.91Q79.29 14.54 78.51 14.54L78.51 14.54Q77.79 14.54 77.38 14.85Q76.98 15.16 76.98 15.71L76.98 15.71Q76.98 16.18 77.42 16.50Q77.85 16.81 78.85 17.10Q79.84 17.40 80.45 17.78Q81.05 18.16 81.33 18.65Q81.61 19.13 81.61 19.79L81.61 19.79Q81.61 20.86 80.79 21.49Q79.98 22.12 78.58 22.12L78.58 22.12Q77.65 22.12 76.87 21.77Q76.10 21.43 75.67 20.83Q75.24 20.22 75.24 19.42ZM91.48 22L85.90 22L85.90 13.47L91.44 13.47L91.44 14.66L87.38 14.66L87.38 17.02L90.89 17.02L90.89 18.19L87.38 18.19L87.38 20.82L91.48 20.82L91.48 22ZM104.11 22L101.65 22L101.65 13.47L104.17 13.47Q105.30 13.47 106.18 13.97Q107.05 14.48 107.53 15.40Q108.01 16.33 108.01 17.52L108.01 17.52L108.01 17.95Q108.01 19.16 107.53 20.08Q107.05 21.00 106.15 21.50Q105.26 22 104.11 22L104.11 22ZM103.13 14.66L103.13 20.82L104.10 20.82Q105.27 20.82 105.89 20.09Q106.51 19.36 106.53 17.99L106.53 17.99L106.53 17.52Q106.53 16.13 105.92 15.40Q105.32 14.66 104.17 14.66L104.17 14.66L103.13 14.66ZM113.26 22L111.72 22L114.94 13.47L116.27 13.47L119.50 22L117.95 22L117.25 20.01L113.95 20.01L113.26 22ZM115.60 15.28L114.37 18.82L116.84 18.82L115.60 15.28ZM125.14 14.66L122.50 14.66L122.50 13.47L129.27 13.47L129.27 14.66L126.61 14.66L126.61 22L125.14 22L125.14 14.66ZM138.60 22L133.02 22L133.02 13.47L138.56 13.47L138.56 14.66L134.50 14.66L134.50 17.02L138.01 17.02L138.01 18.19L134.50 18.19L134.50 20.82L138.60 20.82L138.60 22Z" fill="#FFFFFF"/><path class="svg__text" d="M163.49 20.93L163.49 20.93L164.78 19.40Q165.45 20.27 166.23 20.27L166.23 20.27Q166.23 20.27 166.24 20.27L166.24 20.27Q166.75 20.27 167.02 19.96Q167.29 19.65 167.29 19.05L167.29 19.05L167.29 15.44L164.39 15.44L164.39 13.60L169.65 13.60L169.65 18.91Q169.65 20.54 168.82 21.36Q168.00 22.17 166.41 22.17L166.41 22.17Q165.48 22.17 164.73 21.85Q163.97 21.53 163.49 20.93ZM174.66 18.26L174.66 18.26L174.66 13.60L177.04 13.60L177.04 18.19Q177.04 20.20 178.64 20.20L178.64 20.20Q180.22 20.20 180.22 18.19L180.22 18.19L180.22 13.60L182.56 13.60L182.56 18.26Q182.56 20.13 181.52 21.15Q180.48 22.17 178.61 22.17L178.61 22.17Q176.74 22.17 175.70 21.15Q174.66 20.13 174.66 18.26ZM194.03 22L187.65 22L187.65 13.60L190.03 13.60L190.03 20.11L194.03 20.11L194.03 22ZM200.58 18.95L197.37 13.60L199.88 13.60L201.87 16.94L203.87 13.60L206.17 13.60L202.95 18.99L202.95 22L200.58 22L200.58 18.95Z" fill="#FFFFFF" x="163.38"/></svg>