<svg xmlns="http://www.w3.org/2000/svg" width="303.12" height="35" viewBox="0 0 303.12 35"><rect class="svg__rect" x="0" y="0" width="73.6" height="35" fill="#A8A0BF"/><rect class="svg__rect" x="71.6" y="0" width="231.51999999999998" height="35" fill="#389AD5"/><path class="svg__text" d="M14.08 19.16L14.08 19.16L14.08 13.47L15.56 13.47L15.56 19.18Q15.56 20.03 15.99 20.48Q16.43 20.93 17.27 20.93L17.27 20.93Q18.98 20.93 18.98 19.13L18.98 19.13L18.98 13.47L20.46 13.47L20.46 19.17Q20.46 20.53 19.59 21.32Q18.72 22.12 17.27 22.12L17.27 22.12Q15.81 22.12 14.94 21.33Q14.08 20.55 14.08 19.16ZM24.59 19.42L24.59 19.42L26.08 19.42Q26.08 20.15 26.56 20.55Q27.04 20.95 27.93 20.95L27.93 20.95Q28.71 20.95 29.10 20.63Q29.49 20.32 29.49 19.80L29.49 19.80Q29.49 19.24 29.09 18.94Q28.70 18.63 27.66 18.32Q26.63 18.01 26.02 17.63L26.02 17.63Q24.86 16.90 24.86 15.72L24.86 15.72Q24.86 14.69 25.70 14.02Q26.54 13.35 27.88 13.35L27.88 13.35Q28.77 13.35 29.47 13.68Q30.17 14.01 30.56 14.61Q30.96 15.22 30.96 15.96L30.96 15.96L29.49 15.96Q29.49 15.29 29.07 14.91Q28.65 14.54 27.87 14.54L27.87 14.54Q27.14 14.54 26.74 14.85Q26.34 15.16 26.34 15.71L26.34 15.71Q26.34 16.18 26.77 16.50Q27.21 16.81 28.20 17.10Q29.20 17.40 29.80 17.78Q30.41 18.16 30.69 18.65Q30.97 19.13 30.97 19.79L30.97 19.79Q30.97 20.86 30.15 21.49Q29.33 22.12 27.93 22.12L27.93 22.12Q27.01 22.12 26.23 21.77Q25.46 21.43 25.02 20.83Q24.59 20.22 24.59 19.42ZM36.82 22L35.35 22L35.35 13.47L36.82 13.47L36.82 22ZM43.12 22L41.63 22L41.63 13.47L43.12 13.47L46.93 19.54L46.93 13.47L48.40 13.47L48.40 22L46.92 22L43.12 15.95L43.12 22ZM52.89 18.13L52.89 18.13L52.89 17.46Q52.89 15.53 53.82 14.44Q54.75 13.35 56.40 13.35L56.40 13.35Q57.83 13.35 58.67 14.05Q59.50 14.76 59.67 16.08L59.67 16.08L58.22 16.08Q57.98 14.54 56.43 14.54L56.43 14.54Q55.44 14.54 54.92 15.26Q54.40 15.98 54.38 17.37L54.38 17.37L54.38 18.02Q54.38 19.40 54.97 20.17Q55.55 20.93 56.59 20.93L56.59 20.93Q57.72 20.93 58.20 20.42L58.20 20.42L58.20 18.75L56.45 18.75L56.45 17.62L59.68 17.62L59.68 20.89Q59.22 21.50 58.40 21.81Q57.58 22.12 56.53 22.12L56.53 22.12Q55.46 22.12 54.64 21.63Q53.81 21.14 53.36 20.24Q52.91 19.33 52.89 18.13Z" fill="#FFFFFF"/><path class="svg__text" d="M85.36 17.80L85.36 17.80Q85.36 16.54 85.96 15.54Q86.56 14.55 87.61 13.99Q88.66 13.43 89.98 13.43L89.98 13.43Q91.13 13.43 92.05 13.84Q92.98 14.25 93.59 15.02L93.59 15.02L92.08 16.39Q91.27 15.40 90.10 15.40L90.10 15.40Q89.41 15.40 88.88 15.70Q88.35 16 88.05 16.54Q87.76 17.09 87.76 17.80L87.76 17.80Q87.76 18.51 88.05 19.05Q88.35 19.60 88.88 19.90Q89.41 20.20 90.10 20.20L90.10 20.20Q91.27 20.20 92.08 19.22L92.08 19.22L93.59 20.58Q92.98 21.35 92.06 21.76Q91.13 22.17 89.98 22.17L89.98 22.17Q88.66 22.17 87.61 21.61Q86.56 21.05 85.96 20.05Q85.36 19.06 85.36 17.80ZM98.06 18.26L98.06 18.26L98.06 13.60L100.44 13.60L100.44 18.19Q100.44 20.20 102.03 20.20L102.03 20.20Q103.61 20.20 103.61 18.19L103.61 18.19L103.61 13.60L105.96 13.60L105.96 18.26Q105.96 20.13 104.92 21.15Q103.88 22.17 102.01 22.17L102.01 22.17Q100.13 22.17 99.09 21.15Q98.06 20.13 98.06 18.26ZM113.42 22L111.04 22L111.04 13.60L114.89 13.60Q116.03 13.60 116.87 13.98Q117.70 14.35 118.16 15.06Q118.62 15.76 118.62 16.71L118.62 16.71Q118.62 17.62 118.19 18.30Q117.76 18.98 116.97 19.36L116.97 19.36L118.78 22L116.24 22L114.72 19.77L113.42 19.77L113.42 22ZM113.42 15.47L113.42 17.93L114.74 17.93Q115.47 17.93 115.84 17.61Q116.22 17.29 116.22 16.71L116.22 16.71Q116.22 16.12 115.84 15.79Q115.47 15.47 114.74 15.47L114.74 15.47L113.42 15.47ZM125.78 22L123.41 22L123.41 13.60L127.25 13.60Q128.39 13.60 129.23 13.98Q130.07 14.35 130.52 15.06Q130.98 15.76 130.98 16.71L130.98 16.71Q130.98 17.62 130.55 18.30Q130.13 18.98 129.33 19.36L129.33 19.36L131.15 22L128.60 22L127.08 19.77L125.78 19.77L125.78 22ZM125.78 15.47L125.78 17.93L127.10 17.93Q127.83 17.93 128.21 17.61Q128.58 17.29 128.58 16.71L128.58 16.71Q128.58 16.12 128.21 15.79Q127.83 15.47 127.10 15.47L127.10 15.47L125.78 15.47ZM142.51 22L135.77 22L135.77 13.60L142.36 13.60L142.36 15.44L138.12 15.44L138.12 16.85L141.86 16.85L141.86 18.63L138.12 18.63L138.12 20.17L142.51 20.17L142.51 22ZM149.65 22L147.32 22L147.32 13.60L149.27 13.60L152.98 18.07L152.98 13.60L155.31 13.60L155.31 22L153.36 22L149.65 17.52L149.65 22ZM160.04 17.80L160.04 17.80Q160.04 16.54 160.64 15.54Q161.24 14.55 162.29 13.99Q163.34 13.43 164.66 13.43L164.66 13.43Q165.82 13.43 166.74 13.84Q167.66 14.25 168.28 15.02L168.28 15.02L166.76 16.39Q165.95 15.40 164.78 15.40L164.78 15.40Q164.10 15.40 163.57 15.70Q163.03 16 162.74 16.54Q162.44 17.09 162.44 17.80L162.44 17.80Q162.44 18.51 162.74 19.05Q163.03 19.60 163.57 19.90Q164.10 20.20 164.78 20.20L164.78 20.20Q165.95 20.20 166.76 19.22L166.76 19.22L168.28 20.58Q167.67 21.35 166.74 21.76Q165.82 22.17 164.66 22.17L164.66 22.17Q163.34 22.17 162.29 21.61Q161.24 21.05 160.64 20.05Q160.04 19.06 160.04 17.80ZM174.94 18.95L171.73 13.60L174.24 13.60L176.23 16.94L178.23 13.60L180.53 13.60L177.31 18.99L177.31 22L174.94 22L174.94 18.95ZM186.99 22L184.61 22L184.61 13.60L191.20 13.60L191.20 15.44L186.99 15.44L186.99 17.28L190.70 17.28L190.70 19.12L186.99 19.12L186.99 22ZM198.18 22L195.80 22L195.80 13.60L199.64 13.60Q200.78 13.60 201.62 13.98Q202.46 14.35 202.92 15.06Q203.37 15.76 203.37 16.71L203.37 16.71Q203.37 17.62 202.95 18.30Q202.52 18.98 201.73 19.36L201.73 19.36L203.54 22L200.99 22L199.47 19.77L198.18 19.77L198.18 22ZM198.18 15.47L198.18 17.93L199.49 17.93Q200.23 17.93 200.60 17.61Q200.97 17.29 200.97 16.71L200.97 16.71Q200.97 16.12 200.60 15.79Q200.23 15.47 199.49 15.47L199.49 15.47L198.18 15.47ZM214.91 22L208.16 22L208.16 13.60L214.75 13.60L214.75 15.44L210.52 15.44L210.52 16.85L214.25 16.85L214.25 18.63L210.52 18.63L210.52 20.17L214.91 20.17L214.91 22ZM221.13 22L218.70 22L222.41 13.60L224.75 13.60L228.47 22L226.00 22L225.34 20.37L221.79 20.37L221.13 22ZM223.57 15.93L222.48 18.61L224.64 18.61L223.57 15.93ZM234.98 22L232.62 22L232.62 13.60L234.98 13.60L234.98 17.09L238.23 13.60L240.84 13.60L237.42 17.32L241.03 22L238.27 22L235.86 18.95L234.98 19.90L234.98 22ZM244.55 21.24L244.55 21.24L245.33 19.49Q245.89 19.86 246.63 20.09Q247.38 20.32 248.10 20.32L248.10 20.32Q249.46 20.32 249.47 19.64L249.47 19.64Q249.47 19.28 249.08 19.11Q248.69 18.93 247.82 18.74L247.82 18.74Q246.87 18.53 246.24 18.30Q245.60 18.06 245.15 17.55Q244.69 17.03 244.69 16.16L244.69 16.16Q244.69 15.39 245.11 14.77Q245.53 14.15 246.37 13.79Q247.20 13.43 248.41 13.43L248.41 13.43Q249.24 13.43 250.04 13.62Q250.85 13.80 251.46 14.17L251.46 14.17L250.73 15.93Q249.53 15.28 248.40 15.28L248.40 15.28Q247.69 15.28 247.37 15.49Q247.04 15.70 247.04 16.04L247.04 16.04Q247.04 16.37 247.43 16.54Q247.81 16.71 248.66 16.89L248.66 16.89Q249.62 17.10 250.25 17.33Q250.88 17.56 251.34 18.07Q251.81 18.58 251.81 19.46L251.81 19.46Q251.81 20.21 251.39 20.83Q250.97 21.44 250.13 21.80Q249.29 22.17 248.09 22.17L248.09 22.17Q247.07 22.17 246.11 21.92Q245.15 21.67 244.55 21.24ZM255.87 20.75L255.87 20.75Q255.87 20.15 256.26 19.78Q256.65 19.41 257.24 19.41L257.24 19.41Q257.84 19.41 258.22 19.78Q258.60 20.15 258.60 20.75L258.60 20.75Q258.60 21.34 258.21 21.72Q257.83 22.11 257.24 22.11L257.24 22.11Q256.66 22.11 256.26 21.72Q255.87 21.34 255.87 20.75ZM264.68 22L262.25 22L265.96 13.60L268.31 13.60L272.02 22L269.56 22L268.89 20.37L265.34 20.37L264.68 22ZM267.12 15.93L266.03 18.61L268.20 18.61L267.12 15.93ZM278.56 22L276.18 22L276.18 13.60L280.02 13.60Q281.16 13.60 282.00 13.98Q282.84 14.35 283.30 15.06Q283.75 15.76 283.75 16.71L283.75 16.71Q283.75 17.66 283.30 18.35Q282.84 19.05 282.00 19.42Q281.16 19.80 280.02 19.80L280.02 19.80L278.56 19.80L278.56 22ZM278.56 15.47L278.56 17.93L279.87 17.93Q280.61 17.93 280.98 17.61Q281.35 17.29 281.35 16.71L281.35 16.71Q281.35 16.12 280.98 15.80Q280.61 15.47 279.87 15.47L279.87 15.47L278.56 15.47ZM290.88 22L288.50 22L288.50 13.60L290.88 13.60L290.88 22Z" fill="#FFFFFF" x="84.6"/></svg>